# xmcd
#
# Track frame offsets:
#	150
#	14366
#	27512
#	37556
#	50215
#	61656
#	75405
#	84157
#	95362
#	106877
#	118379
#	128872
#	141640
#	154878
#	168404
#	181369
#	190227
#	204885
#	218681
#	230914
#	244601
#	255356
#	268984
#	281758
#	292797
#	304508
#	316311
#	330099
#
# Disc length: 4590 seconds
#
# Revision: 0
# Processed by: cddbd v1.5.1PL0 Copyright (c) Steve Scherf et al.
# Submitted via: EasyCDDAExtractor 8.0.2.1
#
DISCID=8011ec1c
DTITLE=Dean Martin - That's Amore
DYEAR=2004
DGENRE=Acapella
TTITLE0=That's Amore
TTITLE1=Walkin' My Baby Back Home
TTITLE2=Once In Love With Amy
TTITLE3=You Was
TTITLE4=Powder Your Face With Sunshine
TTITLE5=That Lucky Old Sun
TTITLE6=I Don't Care If The Sunshine Don't Shine
TTITLE7=Be Honest With Me
TTITLE8=Happy Feet
TTITLE9=I'll Always Love You
TTITLE10=Who's Sorry Now?
TTITLE11=If
TTITLE12=Beside You
TTITLE13=In The Cool, Cool, Cool Of The Evening
TTITLE14=Solitaire
TTITLE15=Night Train To Memphis
TTITLE16=Come Back To Sorrento
TTITLE17=When You're Smiling
TTITLE18=Won't You Surrender
TTITLE19=You Belong To Me
TTITLE20=Kiss
TTITLE21=There's My Lover
TTITLE22=I Feel Like A Feather In The Breeze
TTITLE23=Don't You Remember?
TTITLE24=Love Me, Love Me
TTITLE25=I'd Cry Like A Baby
TTITLE26=Money Burns A Hole In My Pocket
TTITLE27=I Love The Way You Say "Goodnight!"
EXTD=
EXTT0=
EXTT1=
EXTT2=
EXTT3=
EXTT4=
EXTT5=
EXTT6=
EXTT7=
EXTT8=
EXTT9=
EXTT10=
EXTT11=
EXTT12=
EXTT13=
EXTT14=
EXTT15=
EXTT16=
EXTT17=
EXTT18=
EXTT19=
EXTT20=
EXTT21=
EXTT22=
EXTT23=
EXTT24=
EXTT25=
EXTT26=
EXTT27=
PLAYORDER=
